<svg width="256" height="256" viewBox="0 0 256 256" fill="none" xmlns="http://www.w3.org/2000/svg">
<path d="M138.999 163.823H139.179C139.799 163.822 140.395 163.587 140.849 163.165C141.303 162.743 141.58 162.165 141.625 161.547L141.657 161.098C141.703 160.449 141.49 159.808 141.064 159.317C140.638 158.825 140.034 158.523 139.386 158.476C138.737 158.43 138.096 158.643 137.604 159.069C137.113 159.495 136.811 160.099 136.764 160.748L136.733 161.197C136.708 161.518 136.748 161.841 136.848 162.147C136.949 162.454 137.11 162.737 137.32 162.981C137.531 163.225 137.788 163.425 138.076 163.569C138.364 163.714 138.678 163.8 138.999 163.823Z" fill="#3E92CC"/>
<path d="M150.226 43.4928C150.273 42.8437 150.061 42.2024 149.636 41.7094C149.211 41.2164 148.608 40.9118 147.959 40.8624H147.694C147.365 40.8238 147.032 40.8522 146.714 40.9458C146.396 41.0394 146.101 41.1964 145.845 41.4072C145.59 41.618 145.38 41.8784 145.227 42.1726C145.075 42.4668 144.984 42.7887 144.959 43.1191C144.935 43.4494 144.977 43.7813 145.084 44.0948C145.192 44.4082 145.361 44.6968 145.583 44.9431C145.804 45.1894 146.073 45.3883 146.374 45.5278C146.674 45.6674 146.999 45.7447 147.331 45.7552H147.6H147.784C148.401 45.7547 148.995 45.5215 149.448 45.1022C149.901 44.6828 150.178 44.1081 150.226 43.4928Z" fill="#3E92CC"/>
<path d="M121.475 204.508L121.139 209.118C121.093 209.767 121.306 210.408 121.732 210.9C122.158 211.392 122.761 211.696 123.41 211.744H123.59C124.209 211.743 124.806 211.508 125.26 211.086C125.713 210.664 125.991 210.086 126.036 209.468L126.368 204.858C126.415 204.209 126.203 203.568 125.777 203.076C125.352 202.584 124.748 202.281 124.099 202.234C123.45 202.187 122.809 202.4 122.317 202.826C121.825 203.251 121.522 203.855 121.475 204.504V204.508Z" fill="#3E92CC"/>
<path d="M121.983 66.2912C122.602 66.2906 123.199 66.0557 123.653 65.6336C124.106 65.2115 124.384 64.6335 124.429 64.0154L124.761 59.4279C124.808 58.7791 124.596 58.1382 124.17 57.6462C123.745 57.1541 123.141 56.8513 122.492 56.8043C121.843 56.7572 121.202 56.9699 120.71 57.3954C120.218 57.821 119.916 58.4245 119.869 59.0733L119.532 63.6833C119.485 64.3326 119.698 64.9741 120.124 65.4665C120.55 65.959 121.154 66.2621 121.803 66.3092L121.983 66.2912Z" fill="#3E92CC"/>
<path d="M144.004 60.7971L143.672 65.407C143.648 65.7283 143.688 66.0512 143.789 66.3571C143.89 66.6631 144.051 66.9461 144.261 67.19C144.472 67.4339 144.728 67.6339 145.016 67.7785C145.304 67.9231 145.618 68.0096 145.939 68.0329H146.119C146.738 68.0323 147.335 67.7974 147.789 67.3753C148.242 66.9532 148.52 66.3751 148.565 65.7571L148.897 61.1472C148.92 60.8259 148.88 60.5032 148.779 60.1975C148.677 59.8918 148.517 59.609 148.306 59.3654C148.095 59.1218 147.839 58.922 147.551 58.7776C147.263 58.6331 146.949 58.5468 146.628 58.5235C146.307 58.5002 145.984 58.5404 145.678 58.6419C145.373 58.7433 145.09 58.904 144.846 59.1147C144.603 59.3254 144.403 59.582 144.258 59.8699C144.114 60.1578 144.028 60.4713 144.004 60.7926V60.7971Z" fill="#3E92CC"/>
<path d="M66.5603 223.092C66.2293 223.077 65.8989 223.13 65.5889 223.247C65.279 223.364 64.9959 223.543 64.7567 223.772C64.5175 224.001 64.3271 224.276 64.1971 224.581C64.067 224.886 64 225.213 64 225.545C64 225.876 64.067 226.204 64.1971 226.508C64.3271 226.813 64.5175 227.088 64.7567 227.318C64.9959 227.547 65.279 227.725 65.5889 227.842C65.8989 227.959 66.2293 228.012 66.5603 227.998H170.039C170.672 227.971 171.269 227.7 171.707 227.243C172.145 226.786 172.389 226.178 172.389 225.545C172.389 224.912 172.145 224.303 171.707 223.846C171.269 223.389 170.672 223.119 170.039 223.092H137.177L138.775 200.949C138.822 200.3 138.609 199.659 138.184 199.167C137.758 198.675 137.155 198.372 136.506 198.325C135.857 198.278 135.216 198.491 134.724 198.916C134.232 199.342 133.929 199.945 133.882 200.594L132.257 223.092H112.924L115.128 192.64L158.481 195.782L157.076 215.187C157.052 215.508 157.093 215.831 157.194 216.137C157.296 216.442 157.457 216.725 157.668 216.968C157.879 217.212 158.136 217.411 158.424 217.556C158.712 217.7 159.026 217.786 159.347 217.808H159.526C160.146 217.808 160.743 217.573 161.196 217.151C161.65 216.729 161.928 216.151 161.973 215.533L163.553 193.677C163.576 193.356 163.536 193.033 163.434 192.727C163.333 192.421 163.172 192.139 162.961 191.895C162.75 191.652 162.493 191.452 162.205 191.308C161.917 191.164 161.603 191.078 161.282 191.055L113.032 187.572C112.711 187.548 112.388 187.588 112.082 187.69C111.776 187.791 111.493 187.952 111.249 188.163C111.006 188.374 110.806 188.631 110.662 188.92C110.518 189.208 110.433 189.522 110.411 189.844L108.005 223.092H88.6763L91.0015 190.898L102.125 191.702C102.773 191.749 103.414 191.536 103.906 191.111C104.398 190.685 104.701 190.082 104.748 189.433C104.795 188.784 104.583 188.143 104.157 187.651C103.732 187.159 103.128 186.856 102.479 186.809L88.9097 185.826L84.2414 185.489L84.5781 180.844L166.273 186.751L166.031 190.117C165.984 190.767 166.197 191.408 166.623 191.901C167.048 192.393 167.653 192.696 168.302 192.743H168.481C169.101 192.743 169.698 192.508 170.151 192.086C170.605 191.664 170.883 191.085 170.928 190.467L171.345 184.655C171.391 184.005 171.178 183.365 170.752 182.872C170.326 182.38 169.723 182.077 169.074 182.029L164.41 181.692L166.946 146.639L171.61 146.981H171.79C172.409 146.98 173.006 146.745 173.46 146.323C173.913 145.901 174.191 145.323 174.236 144.705L174.923 135.162C174.947 134.841 174.908 134.518 174.807 134.212C174.706 133.906 174.546 133.623 174.335 133.379C174.124 133.136 173.868 132.936 173.579 132.792C173.291 132.648 172.977 132.563 172.656 132.54L143.865 130.458L146.397 95.4051L165.627 96.7966L163.782 122.382C163.735 123.027 163.944 123.664 164.364 124.155C164.785 124.646 165.382 124.951 166.026 125.004H166.206C166.834 125.013 167.442 124.782 167.904 124.357C168.367 123.932 168.649 123.346 168.692 122.719L170.542 97.1557L175.206 97.4923H175.385C176.005 97.4906 176.602 97.2547 177.055 96.8319C177.509 96.409 177.786 95.8305 177.832 95.212L178.523 85.6735C178.569 85.0244 178.355 84.3836 177.929 83.8914C177.504 83.3993 176.9 83.0958 176.251 83.0476L167.436 82.4102C166.792 82.3741 166.161 82.5922 165.677 83.0177C165.193 83.4431 164.896 84.0417 164.849 84.6843C164.803 85.3269 165.01 85.9621 165.428 86.4528C165.846 86.9435 166.439 87.2504 167.081 87.3074L173.451 87.7563L173.114 92.4021L106.299 87.5947C105.657 87.5616 105.028 87.7815 104.546 88.2072C104.065 88.6329 103.769 89.2305 103.723 89.8716C103.678 90.5128 103.885 91.1463 104.301 91.6362C104.717 92.1261 105.309 92.4333 105.949 92.4919L117.382 93.3178L114.846 128.37L95.6159 126.979L98.3091 89.4799C98.3407 89.0115 98.2362 88.5438 98.0084 88.1333C98.0101 88.1199 98.0101 88.1063 98.0084 88.0929C97.9795 88.0463 97.9481 88.0013 97.9141 87.9582C97.7089 87.6459 97.4346 87.3851 97.1123 87.1959C96.79 87.0067 96.4285 86.8944 96.0558 86.8675L91.392 86.5263L91.7376 81.8715L157.305 86.6116H157.471H157.592C157.7 86.6078 157.808 86.5973 157.915 86.5802H157.982C158.503 86.4714 158.973 86.1961 159.323 85.7961C159.673 85.396 159.883 84.8929 159.921 84.3628C159.919 84.3359 159.919 84.3089 159.921 84.282L162.166 53.1481C162.189 52.8269 162.149 52.5042 162.047 52.1984C161.946 51.8927 161.785 51.61 161.575 51.3663C161.364 51.1227 161.107 50.923 160.819 50.7785C160.532 50.6341 160.218 50.5477 159.897 50.5245C159.576 50.5012 159.253 50.5414 158.947 50.6428C158.641 50.7442 158.359 50.9049 158.115 51.1156C157.623 51.5411 157.32 52.1447 157.273 52.7935L155.226 81.5438L135.413 80.1075L137.922 45.0639L140.615 45.2569C141.259 45.293 141.89 45.0749 142.374 44.6494C142.858 44.224 143.155 43.6254 143.202 42.9828C143.249 42.3401 143.041 41.705 142.623 41.2143C142.206 40.7236 141.612 40.4166 140.97 40.3597L104.629 37.7293L104.952 33.0835L167.346 37.5991L167.009 42.245L156.308 41.4729C155.659 41.4259 155.018 41.6385 154.526 42.0641C154.034 42.4896 153.731 43.0932 153.684 43.742C153.637 44.3908 153.85 45.0317 154.276 45.5237C154.701 46.0158 155.305 46.3186 155.953 46.3656L169.141 47.3083H169.321C169.932 47.3038 170.52 47.0713 170.97 46.6562C171.419 46.2411 171.697 45.6733 171.749 45.0639L172.441 35.5209C172.464 35.1995 172.423 34.8768 172.322 34.5711C172.22 34.2654 172.059 33.9827 171.848 33.7393C171.637 33.4958 171.381 33.2963 171.092 33.1522C170.804 33.0081 170.491 32.9222 170.169 32.8994L102.87 28.0067C102.549 27.9829 102.226 28.0226 101.92 28.1237C101.615 28.2249 101.332 28.3853 101.088 28.5959C100.845 28.8065 100.645 29.0631 100.501 29.351C100.357 29.6389 100.271 29.9524 100.248 30.2735L99.566 39.8256C99.5188 40.4702 99.7282 41.1073 100.149 41.5982C100.569 42.0892 101.166 42.3942 101.81 42.447L108.301 42.8958L106.411 69.3031C106.388 69.6244 106.428 69.9471 106.53 70.2528C106.632 70.5585 106.793 70.8412 107.003 71.0847C107.214 71.3281 107.471 71.5276 107.759 71.6717C108.048 71.8158 108.361 71.9017 108.683 71.9245H108.862C109.481 71.9238 110.077 71.6887 110.53 71.2666C110.983 70.8444 111.26 70.2663 111.304 69.6487L113.212 43.2684L133.029 44.7003L130.493 79.7528L89.6459 76.7948C89.3245 76.7715 89.0018 76.8119 88.6961 76.9135C88.3904 77.0151 88.1077 77.176 87.8643 77.3869C87.6208 77.5979 87.4213 77.8548 87.2772 78.1429C87.1331 78.431 87.0472 78.7447 87.0244 79.0661L86.3287 88.6046C86.3055 88.9259 86.3458 89.2487 86.4474 89.5544C86.549 89.8601 86.7099 90.1427 86.9209 90.3862C87.1318 90.6297 87.3887 90.8292 87.6768 90.9733C87.9649 91.1174 88.2786 91.2033 88.6 91.226L93.2638 91.5627L90.7321 126.624L86.0638 126.31C85.4185 126.262 84.7802 126.47 84.2883 126.891C83.7963 127.311 83.4906 127.909 83.4379 128.554L82.7512 138.097C82.7273 138.419 82.7673 138.742 82.8686 139.048C82.97 139.354 83.1309 139.637 83.3419 139.88C83.553 140.124 83.8101 140.323 84.0985 140.467C84.3869 140.611 84.7009 140.697 85.0225 140.719L89.6863 141.06L87.7875 167.315C87.7406 167.964 87.9535 168.605 88.3794 169.098C88.8054 169.59 89.4094 169.893 90.0588 169.94H90.2384C90.8579 169.941 91.4545 169.706 91.9077 169.284C92.361 168.861 92.637 168.283 92.6802 167.665L94.579 141.406L113.809 142.797L111.277 177.85L108.44 177.643L109.307 165.649C109.434 163.889 108.857 162.15 107.702 160.816C106.548 159.481 104.91 158.66 103.15 158.532C101.39 158.405 99.6514 158.982 98.3168 160.137C96.9821 161.291 96.1607 162.929 96.0333 164.689L95.167 176.687L82.4863 175.789C81.8369 175.742 81.1955 175.955 80.7031 176.381C80.2106 176.807 79.9075 177.411 79.8604 178.061L79.1736 187.581C79.1253 188.227 79.3341 188.865 79.7546 189.357C80.175 189.849 80.773 190.154 81.418 190.207L86.0863 190.544L83.7342 223.092H66.5603ZM122.283 93.6724L141.513 95.0594L138.977 130.112L136.001 129.896L136.867 117.903C136.93 117.031 136.821 116.156 136.546 115.326C136.271 114.497 135.835 113.73 135.263 113.069C134.691 112.408 133.995 111.866 133.214 111.475C132.433 111.083 131.583 110.849 130.711 110.786C129.84 110.723 128.964 110.832 128.135 111.107C127.305 111.382 126.538 111.818 125.878 112.39C125.217 112.962 124.675 113.658 124.283 114.439C123.891 115.22 123.657 116.07 123.594 116.942L122.728 128.936L119.747 128.72L122.283 93.6724ZM131.104 129.542L127.621 129.291L128.487 117.297C128.524 116.835 128.741 116.407 129.091 116.104C129.441 115.802 129.897 115.65 130.359 115.681C130.587 115.697 130.811 115.759 131.016 115.861C131.221 115.964 131.403 116.106 131.553 116.28C131.703 116.453 131.818 116.654 131.89 116.872C131.962 117.09 131.991 117.319 131.975 117.548L131.104 129.542ZM88.1556 131.337L169.851 137.249L169.514 141.895L87.8189 135.988L88.1556 131.337ZM118.706 143.138L137.936 144.53L137.375 152.277C137.351 152.599 137.392 152.921 137.493 153.227C137.595 153.533 137.756 153.815 137.967 154.059C138.178 154.302 138.435 154.502 138.723 154.646C139.011 154.79 139.325 154.876 139.646 154.899H139.825C140.445 154.898 141.042 154.662 141.495 154.239C141.948 153.816 142.224 153.237 142.267 152.618L142.828 144.875L162.058 146.267L159.526 181.315L140.297 179.923L141.001 170.178C141.024 169.541 140.797 168.92 140.37 168.447C139.942 167.974 139.348 167.686 138.712 167.643C138.075 167.601 137.448 167.807 136.961 168.219C136.474 168.631 136.167 169.216 136.104 169.851L135.4 179.6L116.174 178.209L118.706 143.138ZM100.913 165.048C100.946 164.586 101.161 164.156 101.512 163.853C101.862 163.55 102.318 163.398 102.78 163.432C103.242 163.465 103.672 163.681 103.975 164.031C104.278 164.381 104.429 164.837 104.396 165.299L103.53 177.293L100.064 177.033L100.913 165.048Z" fill="#3E92CC"/>
<path d="M188.569 227.998C188.9 228.012 189.23 227.959 189.54 227.842C189.85 227.725 190.133 227.547 190.372 227.318C190.611 227.088 190.802 226.813 190.932 226.509C191.062 226.204 191.129 225.876 191.129 225.545C191.129 225.213 191.062 224.886 190.932 224.581C190.802 224.276 190.611 224.001 190.372 223.772C190.133 223.543 189.85 223.364 189.54 223.247C189.23 223.13 188.9 223.077 188.569 223.092H182.944C182.613 223.077 182.283 223.13 181.973 223.247C181.663 223.364 181.38 223.543 181.141 223.772C180.901 224.001 180.711 224.276 180.581 224.581C180.451 224.886 180.384 225.213 180.384 225.545C180.384 225.876 180.451 226.204 180.581 226.509C180.711 226.813 180.901 227.088 181.141 227.318C181.38 227.547 181.663 227.725 181.973 227.842C182.283 227.959 182.613 228.012 182.944 227.998H188.569Z" fill="#3E92CC"/>
</svg>
