<svg width="256" height="256" viewBox="0 0 256 256" fill="none" xmlns="http://www.w3.org/2000/svg">
<path d="M204.106 92.3357C203.777 90.4434 201.884 89.0448 199.992 89.0448H197.113C194.891 89.0448 192.67 89.0448 190.367 89.0448C188.886 83.0391 186.5 77.2801 183.209 71.9325L184.114 71.0276C186.088 69.0531 188.145 66.9963 190.12 65.0218C191.518 63.6232 191.683 61.4842 190.531 59.921C185.595 53.0926 179.589 47.0868 172.761 42.2328C171.197 41.081 169.058 41.3278 167.66 42.7264C166.426 43.9605 165.192 45.2768 163.875 46.5109C162.888 47.4981 161.819 48.5677 160.749 49.6372C155.401 46.4286 149.643 44.0428 143.555 42.5619C143.555 41.8215 143.555 41.1633 143.555 40.4229V39.1888C143.555 39.0243 143.555 38.8597 143.555 38.6952V36.7207C143.555 35.4866 143.555 34.2526 143.555 32.854C143.555 30.8795 142.156 29.2341 140.264 28.9872C131.954 27.6709 124.056 27.6709 115.747 28.9872C113.773 29.3163 112.374 31.044 112.456 33.1008C112.456 34.3348 112.456 35.5689 112.456 36.803V38.7775C112.456 38.942 112.456 39.1065 112.456 39.2711V40.5051C112.456 41.2456 112.456 41.986 112.456 42.6442C106.45 44.1251 100.691 46.5109 95.2616 49.7195C94.1921 48.6499 93.2049 47.6627 92.1353 46.5932C90.9013 45.3591 89.5849 44.1251 88.3509 42.8087C87.0345 41.4101 84.8132 41.2456 83.2501 42.3151C76.5039 47.0868 70.4981 53.0926 65.5619 59.921C64.4101 61.4842 64.6569 63.7055 65.9733 65.0218C68.03 66.9963 70.0045 69.0531 71.979 71.0276L72.884 71.9325C69.6754 77.2801 67.2896 83.0391 65.7265 89.0448C63.5051 89.0448 61.2838 89.0448 58.9803 89.0448H55.854C53.8795 89.0448 52.2341 90.4434 51.9872 92.4179C51.3291 96.7783 51 100.892 51 104.923C51 109.119 51.3291 113.315 51.9872 117.428C52.3163 119.238 53.9617 120.637 55.7717 120.719C55.9362 120.719 56.1831 120.719 56.5944 120.719C58.5689 120.719 60.4611 120.719 62.4356 120.719C63.5051 120.719 64.5747 120.719 65.6442 120.719C67.2073 126.807 69.5932 132.566 72.884 137.996C70.8272 140.053 68.7705 142.027 66.7137 144.166C66.3846 144.495 66.0555 144.824 65.8087 145.153C64.5747 146.552 64.4924 148.527 65.5619 150.007C70.4981 156.754 76.4216 162.677 83.2501 167.531C84.8132 168.683 87.1991 168.271 88.5977 166.791C89.914 165.392 91.3126 164.076 92.629 162.677C93.5339 161.854 94.3566 160.949 95.1794 160.127C95.9198 160.538 96.6602 161.032 97.4829 161.443C99.3752 162.513 101.761 161.772 102.831 159.88C103.9 157.988 103.16 155.602 101.267 154.532C99.5397 153.627 98.0588 152.722 96.8248 151.817C95.3439 150.83 93.3694 150.995 92.0531 152.146L91.3949 152.64C91.3126 152.722 91.2304 152.805 91.1481 152.887C89.8318 154.285 88.4332 155.684 87.0346 157.083C86.3764 157.741 85.7182 158.399 85.0601 159.057C80.9465 155.766 77.1621 152.064 73.9535 147.951C75.928 145.894 77.9848 143.919 80.1238 141.863C80.5352 141.451 80.9465 141.04 81.1933 140.629C82.0983 139.312 82.0983 137.585 81.1933 136.268C76.9975 130.016 74.1181 123.105 72.7195 115.865C72.3904 114.055 70.745 112.657 68.8527 112.657H68.4414C66.4669 112.657 64.4924 112.657 62.5179 112.657C61.4484 112.657 60.3789 112.657 59.3916 112.657C59.0625 110.024 58.9803 107.391 58.9803 104.759C58.9803 102.126 59.1448 99.4932 59.4739 96.7783C62.1888 96.7783 64.9037 96.7783 67.5364 96.8606C68.3591 96.9428 69.2641 96.8605 70.0868 96.6137C71.5677 96.2024 72.6372 95.0506 72.884 93.5697C74.2826 86.4122 77.0798 79.7483 81.1933 73.578C82.016 72.2616 82.0983 70.6162 81.2756 69.2999C80.8643 68.5594 80.2884 67.9835 79.6302 67.4077L79.3834 67.1608L77.6557 65.4332C76.4216 64.1991 75.2698 62.965 74.0358 61.8132C77.3266 57.6174 81.1111 53.9153 85.3069 50.6244C85.8005 51.1181 86.2118 51.5294 86.7055 52.023C88.1863 53.5039 89.6672 54.9025 90.9835 56.3011C91.8063 57.2061 92.629 57.782 93.6162 58.1111C94.768 58.5224 96.0843 58.3579 97.1538 57.6997C103.324 53.6685 110.07 50.8712 117.228 49.4726C118.709 49.1436 119.943 48.074 120.272 46.5109C120.436 45.935 120.519 45.3591 120.436 44.5364C120.354 43.1378 120.354 41.7392 120.436 40.2583V38.4484C120.436 38.2838 120.436 38.1193 120.436 37.9548V36.4739C120.436 36.3093 120.436 36.1448 120.436 35.898C125.619 35.3221 130.638 35.3221 135.821 35.898C135.821 36.0625 135.821 36.2271 135.821 36.4739V37.8725C135.821 38.037 135.821 38.2016 135.821 38.3661V40.1761C135.821 41.5747 135.821 42.9733 135.739 44.6187C135.739 45.2768 135.821 45.8527 135.986 46.4286C136.315 47.9095 137.549 49.0613 139.03 49.3904C146.187 50.789 152.933 53.5039 159.104 57.6174C160.173 58.2756 161.407 58.4401 162.641 58.0288C163.546 57.6997 164.451 57.1238 165.192 56.3011C166.59 54.8202 168.071 53.3394 169.552 51.9408C170.046 51.4471 170.457 51.0358 170.951 50.5422C175.146 53.833 178.931 57.6174 182.222 61.731C180.988 62.965 179.754 64.1991 178.602 65.3509L176.874 67.0786L176.627 67.3254C175.969 67.9835 175.476 68.5594 174.982 69.2176C174.159 70.5339 174.241 72.1794 175.064 73.4957C179.178 79.666 181.975 86.3299 183.374 93.4874C183.703 94.9683 184.772 96.1201 186.171 96.5315C186.993 96.7783 187.816 96.8605 188.557 96.7783C191.271 96.696 193.986 96.696 196.701 96.696C197.03 99.3287 197.113 102.044 197.113 104.676C197.113 107.309 196.948 110.024 196.701 112.574C195.632 112.574 194.562 112.574 193.575 112.574C191.601 112.574 189.626 112.574 187.652 112.574H187.24C185.348 112.574 183.785 113.891 183.374 115.783C181.893 123.023 179.095 129.851 174.9 136.186C173.995 137.502 173.995 139.23 174.9 140.546C175.146 140.958 175.476 141.287 175.969 141.78C178.026 143.755 180 145.812 182.057 147.868C178.766 151.982 175.064 155.684 170.951 158.975C170.21 158.234 169.47 157.494 168.729 156.754C167.413 155.437 166.097 154.203 164.863 152.887C164.78 152.805 164.698 152.722 164.616 152.64L163.875 152.064C162.559 150.912 160.585 150.83 159.186 151.817C157.787 152.805 156.306 153.627 154.743 154.45C152.851 155.52 152.111 157.905 153.18 159.798C154.25 161.69 156.636 162.43 158.528 161.361C159.35 160.949 160.091 160.456 160.914 160.044C161.654 160.785 162.477 161.608 163.217 162.348C164.698 163.829 166.097 165.227 167.495 166.708C167.742 166.955 168.153 167.367 168.4 167.531C169.058 167.942 169.799 168.189 170.622 168.189C171.444 168.189 172.267 167.942 172.925 167.449C179.754 162.595 185.677 156.671 190.531 149.925C191.601 148.444 191.518 146.387 190.284 145.071C190.037 144.742 189.708 144.413 189.297 144.002C187.24 141.945 185.266 139.888 183.209 137.914C186.5 132.484 188.886 126.643 190.449 120.637C191.518 120.637 192.588 120.637 193.657 120.637C195.632 120.637 197.524 120.637 199.499 120.637C199.828 120.637 200.157 120.637 200.239 120.637C202.131 120.637 203.777 119.238 204.106 117.346C204.764 113.232 205.093 109.037 205.093 104.841C205.093 100.645 204.764 96.4492 204.106 92.3357Z" fill="#3E92CC"/>
<path d="M146.352 131.496C146.352 130.509 146.105 129.44 145.611 128.535L133.764 106.157C133.435 105.581 133.024 105.005 132.695 104.758C131.461 103.524 129.815 102.784 128.252 102.866C126.442 102.784 124.797 103.524 123.81 104.594C123.316 105.087 122.905 105.581 122.576 106.239L110.729 128.617C110.235 129.522 109.988 130.509 109.988 131.579L109.659 214.261C109.577 221.583 115.336 227.588 122.658 227.835L128.334 228L133.764 227.835C141.086 227.588 146.763 221.665 146.763 214.261L146.352 131.496ZM128.088 112.327L136.644 128.452H119.614L128.088 112.327ZM133.353 219.855L128.17 220.02L122.74 219.855C119.696 219.773 117.31 217.305 117.31 214.178L117.639 136.268H138.371L138.701 214.178C138.783 217.222 136.397 219.69 133.353 219.855Z" fill="#3E92CC"/>
</svg>
