<svg width="256" height="256" viewBox="0 0 256 256" fill="none" xmlns="http://www.w3.org/2000/svg">
<path d="M91.4074 109.476H65.2722C64.1719 109.476 63.1168 109.913 62.3388 110.691C61.5608 111.469 61.1237 112.524 61.1237 113.624C61.1237 114.724 61.5608 115.779 62.3388 116.557C63.1168 117.335 64.1719 117.772 65.2722 117.772H91.4074C92.5076 117.772 93.5628 117.335 94.3408 116.557C95.1187 115.779 95.5558 114.724 95.5558 113.624C95.5558 112.524 95.1187 111.469 94.3408 110.691C93.5628 109.913 92.5076 109.476 91.4074 109.476Z" fill="#3E92CC"/>
<path d="M164.835 117.772H190.97C192.07 117.772 193.125 117.335 193.903 116.557C194.681 115.779 195.119 114.724 195.119 113.624C195.119 112.524 194.681 111.469 193.903 110.691C193.125 109.913 192.07 109.476 190.97 109.476H164.835C163.735 109.476 162.679 109.913 161.901 110.691C161.123 111.469 160.686 112.524 160.686 113.624C160.686 114.724 161.123 115.779 161.901 116.557C162.679 117.335 163.735 117.772 164.835 117.772Z" fill="#3E92CC"/>
<path d="M211.09 135.652H222.166C224.741 135.619 227.2 134.574 229.009 132.741C230.818 130.909 231.832 128.437 231.832 125.862V101.427C231.832 98.8309 230.801 96.3407 228.965 94.5047C227.129 92.6686 224.638 91.6372 222.042 91.6372H150.564L157.16 58.9889C157.279 58.3863 157.262 57.7648 157.112 57.1693C156.961 56.5739 156.68 56.0193 156.289 55.5457C155.89 55.0665 155.388 54.6833 154.821 54.4248C154.254 54.1662 153.635 54.0389 153.012 54.0522C154.201 50.7977 154.914 47.3884 155.128 43.93C155.501 37.1681 153.759 32.4388 149.983 30.2816C147.76 29.3617 145.332 29.0498 142.948 29.3778C140.564 29.7059 138.31 30.6621 136.418 32.1484C135.433 30.8811 134.176 29.8506 132.74 29.1327C131.305 28.4148 129.726 28.0278 128.121 28V28C126.496 28.0601 124.906 28.4869 123.469 29.2484C122.032 30.0099 120.786 31.0864 119.824 32.3974C117.94 30.8963 115.688 29.9276 113.302 29.592C110.916 29.2563 108.484 29.5661 106.259 30.4891C102.484 32.6463 100.741 37.3755 101.115 44.1375C101.348 47.5257 102.061 50.8638 103.23 54.0522V54.0522C102.614 54.0451 102.004 54.1754 101.444 54.4338C100.884 54.6921 100.389 55.072 99.9947 55.5457C99.6036 56.0193 99.3226 56.5739 99.172 57.1693C99.0213 57.7648 99.0047 58.3863 99.1235 58.9889L105.637 91.6372H34.2003C32.9146 91.6372 31.6415 91.8904 30.4537 92.3824C29.2659 92.8744 28.1866 93.5956 27.2775 94.5047C26.3684 95.4138 25.6472 96.4931 25.1552 97.6809C24.6632 98.8687 24.41 100.142 24.41 101.427V125.862C24.41 128.458 25.4415 130.949 27.2775 132.785C29.1136 134.621 31.6038 135.652 34.2003 135.652H45.1522L24.41 212.979C23.5935 216.015 24.0066 219.251 25.5597 221.984C27.1128 224.718 29.6808 226.729 32.7069 227.582C33.7053 227.865 34.739 228.004 35.7767 227.997C38.4524 228.061 41.0721 227.225 43.216 225.623C45.3598 224.02 46.9036 221.745 47.5998 219.16L70.0429 135.652H186.199L208.642 219.16C209.326 221.696 210.827 223.936 212.911 225.533C214.996 227.13 217.549 227.996 220.175 227.997C221.226 228.002 222.273 227.862 223.286 227.582C226.313 226.729 228.881 224.718 230.434 221.984C231.987 219.251 232.4 216.015 231.583 212.979L211.09 135.652ZM223.535 101.427V125.862C223.535 126.258 223.378 126.638 223.098 126.918C222.818 127.198 222.438 127.355 222.042 127.355H132.27V99.934H222.042C222.438 99.934 222.818 100.091 223.098 100.371C223.378 100.652 223.535 101.031 223.535 101.427V101.427ZM145.669 37.4585C146.042 37.6659 146.914 39.4497 146.665 43.4322C146.598 47.2108 145.461 50.8931 143.387 54.0522H142.433C142.758 52.8188 142.938 51.5521 142.973 50.2772C142.85 46.5231 142.035 42.824 140.566 39.3667C141.604 38.62 144.715 37.0021 145.669 37.4585ZM128.121 36.0895C128.536 36.0895 130.195 37.1681 131.979 40.7357C133.498 43.7073 134.415 46.95 134.676 50.2772C134.658 51.627 134.239 52.9411 133.473 54.0522H122.77C121.979 52.9532 121.557 51.6312 121.567 50.2772C121.567 44.6353 126.213 36.0895 128.121 36.0895ZM109.578 43.4322C109.329 39.2838 110.2 37.6659 110.947 37.417C112.708 37.6513 114.387 38.3058 115.842 39.3253C114.337 42.793 113.466 46.5022 113.27 50.2772C113.304 51.5521 113.485 52.8188 113.809 54.0522H112.855C110.768 50.899 109.631 47.213 109.578 43.4322V43.4322ZM108.292 62.3491H147.951L142.101 91.6372H114.141L108.292 62.3491ZM32.7069 125.862V101.427C32.7069 101.031 32.8642 100.652 33.1443 100.371C33.4244 100.091 33.8042 99.934 34.2003 99.934H123.973V127.355H34.2003C33.8042 127.355 33.4244 127.198 33.1443 126.918C32.8642 126.638 32.7069 126.258 32.7069 125.862V125.862ZM39.5933 217.128C39.3319 218.056 38.7141 218.842 37.8748 219.316C37.0354 219.791 36.0426 219.913 35.113 219.658C34.6429 219.522 34.2055 219.291 33.8272 218.981C33.449 218.67 33.1379 218.286 32.9128 217.851C32.6878 217.417 32.5535 216.941 32.5181 216.453C32.4827 215.965 32.5469 215.474 32.7069 215.012L53.864 135.652H61.3726L39.5933 217.128ZM221.129 219.658C220.2 219.913 219.207 219.791 218.367 219.316C217.528 218.842 216.91 218.056 216.649 217.128L194.87 135.652H202.378L223.535 215.012C223.682 215.469 223.737 215.952 223.695 216.43C223.653 216.909 223.516 217.374 223.292 217.799C223.068 218.225 222.761 218.601 222.39 218.905C222.018 219.21 221.59 219.438 221.129 219.575V219.658Z" fill="#3E92CC"/>
</svg>
