<svg width="39" height="44" viewBox="0 0 39 44" fill="none" xmlns="http://www.w3.org/2000/svg">
<g clip-path="url(#clip0_23_94)">
<path d="M19.5087 12.1171C13.9721 12.1171 9.50625 16.5257 9.50625 21.9913C9.50625 27.4569 13.9721 31.8655 19.5087 31.8655C25.0453 31.8655 29.5112 27.4569 29.5112 21.9913C29.5112 16.5257 25.0453 12.1171 19.5087 12.1171ZM19.5087 28.4108C15.9308 28.4108 13.0058 25.5319 13.0058 21.9913C13.0058 18.4507 15.9221 15.5718 19.5087 15.5718C23.0953 15.5718 26.0116 18.4507 26.0116 21.9913C26.0116 25.5319 23.0866 28.4108 19.5087 28.4108ZM32.2533 11.7132C32.2533 12.9937 31.2087 14.0163 29.9203 14.0163C28.6232 14.0163 27.5873 12.9851 27.5873 11.7132C27.5873 10.4413 28.6319 9.41006 29.9203 9.41006C31.2087 9.41006 32.2533 10.4413 32.2533 11.7132ZM38.8781 14.0507C38.7301 10.9655 38.0163 8.23271 35.7268 5.98115C33.446 3.72959 30.6777 3.0249 27.5525 2.87021C24.3315 2.68975 14.6772 2.68975 11.4562 2.87021C8.33973 3.01631 5.57143 3.721 3.28192 5.97256C0.992409 8.22412 0.287275 10.9569 0.130579 14.0421C-0.0522339 17.2218 -0.0522339 26.7522 0.130579 29.9319C0.27857 33.0171 0.992409 35.7499 3.28192 38.0015C5.57143 40.253 8.33103 40.9577 11.4562 41.1124C14.6772 41.2929 24.3315 41.2929 27.5525 41.1124C30.6777 40.9663 33.446 40.2616 35.7268 38.0015C38.0076 35.7499 38.7214 33.0171 38.8781 29.9319C39.0609 26.7522 39.0609 17.2304 38.8781 14.0507ZM34.717 33.3436C34.0379 35.028 32.7234 36.3257 31.0085 37.0046C28.4404 38.0101 22.3466 37.778 19.5087 37.778C16.6708 37.778 10.5683 38.0015 8.00893 37.0046C6.30268 36.3343 4.98817 35.0366 4.30044 33.3436C3.28192 30.8085 3.51696 24.7929 3.51696 21.9913C3.51696 19.1897 3.29062 13.1655 4.30044 10.639C4.97946 8.95459 6.29397 7.65693 8.00893 6.97803C10.577 5.97256 16.6708 6.20459 19.5087 6.20459C22.3466 6.20459 28.4491 5.98115 31.0085 6.97803C32.7147 7.64834 34.0292 8.946 34.717 10.639C35.7355 13.1741 35.5004 19.1897 35.5004 21.9913C35.5004 24.7929 35.7355 30.8171 34.717 33.3436Z" fill="#FFFAFF"/>
</g>
<defs>
<clipPath id="clip0_23_94">
<rect width="39" height="44" fill="white"/>
</clipPath>
</defs>
</svg>
