<svg width="55" height="55" viewBox="0 0 55 55" fill="none" xmlns="http://www.w3.org/2000/svg">
<path d="M48.8167 12.6673L29.75 2.44645C29.1834 2.1531 28.5547 2 27.9167 2C27.2786 2 26.6499 2.1531 26.0833 2.44645L7.01667 12.6673C5.77917 13.3548 5 14.684 5 16.1048V39.5715C5 40.9923 5.77917 42.3215 7.0625 43.009L26.0833 53.2756C26.6792 53.5965 27.3208 53.734 27.9167 53.734C28.5583 53.734 29.2 53.5965 29.75 53.2756L48.8167 43.009C50.0542 42.3215 50.8333 40.9923 50.8333 39.5715V16.1048C50.8333 14.684 50.0542 13.3548 48.8167 12.6673ZM46.2042 19.634L30.2083 28.2506V48.4631C30.2083 49.7465 29.2 50.7548 27.9167 50.7548C26.6333 50.7548 25.625 49.7465 25.625 48.4631V28.2506L9.5375 19.5881C8.86893 19.2295 8.3702 18.62 8.15102 17.8937C7.93183 17.1674 8.01016 16.3838 8.36875 15.7152C8.72734 15.0466 9.33684 14.5479 10.0632 14.3287C10.7895 14.1095 11.5731 14.1879 12.2417 14.5465L27.9167 22.9798L43.5 14.5923C44.875 13.8131 46.6167 14.3631 47.3958 15.7381C48.1292 17.159 47.625 18.9006 46.2042 19.634Z" fill="#FFFAFF"/>
</svg>
