<svg width="43" height="44" viewBox="0 0 43 44" fill="none" xmlns="http://www.w3.org/2000/svg">
<path d="M21.5 0.6875C9.62584 0.6875 0 10.2294 0 22C0 33.7706 9.62584 43.3125 21.5 43.3125C33.3742 43.3125 43 33.7706 43 22C43 10.2294 33.3742 0.6875 21.5 0.6875ZM31.4656 15.1817C31.1421 18.5518 29.742 26.7298 29.0295 30.5044C28.7282 32.1014 28.1347 32.637 27.5602 32.6893C26.3118 32.8033 25.3636 31.8715 24.1543 31.0857C22.262 29.8561 21.193 29.0906 19.3562 27.8908C17.2335 26.5042 18.6096 25.7423 19.8193 24.4962C20.1359 24.1703 25.637 19.2102 25.7435 18.7602C25.7567 18.704 25.7695 18.4938 25.6434 18.3835C25.5174 18.2731 25.3322 18.3105 25.1983 18.3405C25.0085 18.3833 21.9856 20.3639 16.1294 24.2824C15.2714 24.8664 14.4943 25.151 13.7979 25.1361C13.0302 25.1197 11.5536 24.7059 10.4558 24.3521C9.10932 23.9183 8.03918 23.6889 8.13237 22.9521C8.18092 22.5682 8.71409 22.1758 9.73187 21.7748C15.9996 19.0678 20.179 17.2832 22.2702 16.4209C28.2409 13.959 29.4816 13.5314 30.2903 13.5171C30.4682 13.5142 30.8659 13.5578 31.1234 13.765C31.2948 13.9126 31.404 14.1186 31.4294 14.3422C31.4731 14.6198 31.4852 14.9014 31.4656 15.1817Z" fill="#FFFAFF"/>
</svg>
