<svg width="50" height="44" viewBox="0 0 50 44" fill="none" xmlns="http://www.w3.org/2000/svg">
<path d="M47.309 10.1148C47.6302 9.04062 47.309 8.25 45.7639 8.25H40.651C39.3489 8.25 38.75 8.92891 38.4288 9.68516C38.4288 9.68516 35.8246 15.9672 32.1441 20.0406C30.9548 21.218 30.408 21.5961 29.7569 21.5961C29.4358 21.5961 28.941 21.218 28.941 20.1437V10.1148C28.941 8.82578 28.5764 8.25 27.5 8.25H19.4618C18.6458 8.25 18.1597 8.85156 18.1597 9.41016C18.1597 10.6305 20 10.9141 20.191 14.3516V21.8109C20.191 23.4438 19.8958 23.7445 19.2448 23.7445C17.5087 23.7445 13.2899 17.4367 10.7899 10.218C10.2864 8.81719 9.79165 8.25 8.48088 8.25H3.36804C1.9097 8.25 1.61456 8.92891 1.61456 9.68516C1.61456 11.0258 3.35067 17.6859 9.69616 26.4859C13.9236 32.493 19.8785 35.75 25.2951 35.75C28.5503 35.75 28.9496 35.0281 28.9496 33.782C28.9496 28.0414 28.6545 27.5 30.2864 27.5C31.0417 27.5 32.3437 27.8781 35.3819 30.7742C38.8542 34.2117 39.4271 35.75 41.3715 35.75H46.4844C47.9427 35.75 48.6806 35.0281 48.2552 33.6016C47.283 30.6023 40.7118 24.432 40.4167 24.0195C39.6614 23.057 39.8785 22.6273 40.4167 21.768C40.4253 21.7594 46.6667 13.0625 47.309 10.1148Z" fill="#FFFAFF"/>
</svg>
