<svg width="38" height="44" viewBox="0 0 38 44" fill="none" xmlns="http://www.w3.org/2000/svg">
<path d="M19 10.5531C12.8335 10.5531 7.82054 15.632 7.81205 21.8797C7.81205 24.0195 8.4058 26.1078 9.52545 27.9039L9.78839 28.3336L8.66027 32.5102L12.8929 31.3844L13.3 31.6336C15.0134 32.6648 16.9812 33.2148 18.9915 33.2148H19C25.158 33.2148 30.3067 28.1359 30.3067 21.8883C30.3067 18.8633 29.0174 16.0188 26.9054 13.8789C24.7848 11.7305 21.9857 10.5531 19 10.5531ZM25.5737 26.7438C25.2937 27.543 23.9536 28.2648 23.3089 28.3594C22.2402 28.5227 21.4089 28.4367 19.2799 27.5086C15.9125 26.0305 13.7071 22.593 13.5375 22.3695C13.3679 22.1461 12.1634 20.5219 12.1634 18.8461C12.1634 17.1703 13.0286 16.3453 13.3424 16.0016C13.6478 15.6578 14.0125 15.5719 14.2415 15.5719C14.4621 15.5719 14.6911 15.5719 14.8862 15.5805C15.0897 15.5891 15.3696 15.5031 15.6411 16.1648C15.921 16.8438 16.5911 18.5195 16.6759 18.6914C16.7607 18.8633 16.8201 19.0609 16.7013 19.2844C16.0567 20.5906 15.3696 20.5391 15.7174 21.1406C17.0152 23.4008 18.3129 24.1828 20.2893 25.1883C20.6286 25.3602 20.8237 25.3344 21.0187 25.1023C21.2138 24.8789 21.8585 24.1055 22.079 23.7703C22.2996 23.4266 22.5286 23.4867 22.8339 23.5984C23.1393 23.7102 24.7933 24.5352 25.1326 24.707C25.4719 24.8789 25.6924 24.9648 25.7772 25.1023C25.8536 25.2656 25.8536 25.9531 25.5737 26.7438ZM33.9286 2.75H4.07143C1.82366 2.75 0 4.59766 0 6.875V37.125C0 39.4023 1.82366 41.25 4.07143 41.25H33.9286C36.1763 41.25 38 39.4023 38 37.125V6.875C38 4.59766 36.1763 2.75 33.9286 2.75ZM18.9915 35.5094C16.7353 35.5094 14.5214 34.9336 12.5621 33.8508L5.42857 35.75L7.33705 28.6859C6.15804 26.6234 5.53884 24.2773 5.53884 21.8711C5.54732 14.3602 11.5781 8.25 18.9915 8.25C22.5879 8.25 25.9638 9.66797 28.5085 12.2461C31.0446 14.8242 32.5714 18.2445 32.5714 21.8883C32.5714 29.3992 26.4049 35.5094 18.9915 35.5094Z" fill="#FFFAFF"/>
</svg>
